<svg version="1" xmlns="http://www.w3.org/2000/svg" width="1728" height="1728" viewBox="0 0 1296.000000 1296.000000"><path d="M677.5 1.4c-3.8.7-10.4 2.3-14.5 3.4-6.7 1.8-11.2 2.1-42.5 2.6-19.2.3-37.7 1-41 1.5-3.3.6-13.4 1.5-22.5 2.1-12.8.7-19.8 1.7-31.2 4.4-8.1 1.9-18.9 3.7-24 4.1-26.5 1.9-46.1 7-73.3 19.2-5.5 2.5-15.3 6.3-21.9 8.5-6.5 2.2-14 5.3-16.5 6.8-2.6 1.6-8 4.3-12.1 6.1-4.1 1.7-8.3 3.7-9.5 4.4C364.8 67 339.3 75 335.4 75c-8.9 0-20.7 2.9-25.5 6.2-18.3 12.7-31.7 24.4-41 36-13.9 17.1-21.5 29.2-22.5 35.9-1.3 8.6-15.8 41.6-23.7 54.1-5.1 8.1-18.1 34.2-22 44.3-3.8 9.9-7 23.2-11.7 49-1.7 9.3-4 21-5.1 26-2.5 11.5-2.7 23-1.1 48 1.5 22.8 2.3 28.8 5.7 40.1 2.4 7.9 3.1 12.3 5.5 32.9.7 5.5 2.1 13.3 3.1 17.5 3.3 12.9 4.1 24.7 2.8 43.5-.6 9.3-.9 20.8-.5 25.5.3 4.7.2 26.7-.4 49-1.1 41.8-.6 56.3 2.6 67.4.8 2.7 1.4 7 1.4 9.6 0 2.5.7 7 1.5 10s2.2 8.9 3 13c.8 4.1 2.1 9.7 3 12.4 1.3 4.3 1.3 6.7 0 22-1.2 14.9-1.2 19.2 0 33.1.8 8.8 2.3 19.1 3.4 23 7.4 26.5 11 43.6 13.1 62 .7 5.5 1.3 10.2 1.5 10.5.7 1.1 3.4 24.2 4 33.2.4 7.8 1.4 12.4 4.9 23 2.4 7.3 4.7 16 5.1 19.3.7 6.5 6 21.7 10.5 30.5 4.1 7.8 10 28.1 11 37.5 1.3 12.3 3.7 17.4 16.8 36.3 1.7 2.3 5.2 9.3 7.8 15.4 4.9 11.7 11.7 24.4 24.9 46.3 15.3 25.5 19.1 30.1 38 45.5 20.2 16.5 50.8 48.5 67.3 70.5 16.3 21.7 21.1 34.2 19.7 51.2l-.7 8.2 4 2.5c2.2 1.4 4.3 3 4.7 3.7.4.6 2.2 1.8 3.9 2.5 2.8 1.4 5.5 3 12.6 8.1 1.3.9 4.2 1.8 6.3 1.9 3.1.1 4.8 1 8 4.2 3.7 3.5 6.3 5 8.9 5.2.4.1 2.6.7 4.8 1.5 2.2.8 4 1.2 4 1 0-.3 1.2.1 2.8.7 4.2 1.8 71.5 1.8 76.7.1 11.4-3.9 22.2-5.5 37.5-5.7 14.5-.2 15.8-.3 20.5-2.8 12.7-6.5 20.5-9 38.6-12.3 14.2-2.5 27.1-6.9 39.6-13.5 6.5-3.4 14.5-7.3 17.8-8.7 10.8-4.5 26.5-13.6 32.5-18.8 7.6-6.6 23.3-15.3 31.7-17.6 9.4-2.6 29.1-12.9 41.8-21.9 15.9-11.2 18.5-12.7 33.9-19.7 24-10.8 28-13.8 55.1-40.6 17.9-17.8 26.1-25.3 32.5-29.4 26.6-17.3 29.8-20 34.7-29.8 1.4-2.8 3.4-6.2 4.4-7.6 3.9-5.5 7.9-18.9 9-29.8.6-5.8 1.9-15.8 2.9-22.1 3.3-20.1 3.3-22.4 1-39.5-1.4-9.9-2.4-23.7-2.7-36.1-.4-18.6-.3-20.5 1.7-26.5 2.6-7.8 4.6-11.1 12.5-20.9 11.5-14.3 17-23.2 40.5-66.1 3.2-5.8 8.6-15 12.1-20.5 16-25.7 23.7-38.9 29.5-50.9 8.1-16.8 9.1-20.1 10.9-34.8.8-6.7 2-16.5 2.6-21.9 1.5-12 .7-27.4-1.9-35.3-1.1-3.5-5.4-11.3-10.1-18.5-10.7-16.3-12.8-20.8-15.1-32.1-1.5-7.3-2-13.5-2-27.9 0-20 1.3-28.1 7.6-45.8l2.6-7.3-1-34.2c-.9-28.1-.8-36.9.3-49.2 1.9-19.5 1.8-29.8-.1-48.6-2-19.7-1.9-32.5.2-41.9 2.7-12.7 2.9-22.4.4-33.1-2.3-10.3-5.8-22.3-9.6-33.9-1.4-4.1-3.4-10.7-4.4-14.5-2.5-9.4-9.4-25.7-13.9-32.8-4.4-7-11.9-18.5-22.4-34.2-9-13.5-12.7-20.6-15.3-29-2.2-7.3-10.1-15.8-18.3-20-3-1.5-7.4-4.6-10-6.9-2.5-2.4-6.7-5.7-9.2-7.4-2.6-1.7-6.6-5.3-8.9-7.9-2.3-2.6-7.4-7-11.3-9.8-6.2-4.4-7.7-6.1-11.3-12.8-5.9-11.2-21-27.9-26.2-29.2-3.8-.9-29.7-13.9-35.5-17.8-2.6-1.7-9.2-6.5-14.6-10.5l-9.8-7.2h-7.1c-3.9 0-9.3-.4-11.9-.9-2.6-.6-6.8-1.2-9.3-1.6-3.3-.4-6.4-2-11.6-5.8-3.8-2.9-11.7-7.6-17.5-10.5-9.5-4.8-11.5-5.4-23.6-7.2-7.3-1.1-14.9-2.7-17-3.5-9.5-4.1-29.9-8.3-45.3-9.5-13.3-1-17.1-1.7-27.1-5-14.3-4.7-18.5-5.3-27.4-3.6z"/></svg>